<svg width="80" height="80" viewBox="0 0 80 80" fill="none" xmlns="http://www.w3.org/2000/svg">
<g clip-path="url(#clip0)">
<path d="M70 9.97335V70.0267C69.993 70.9021 69.6419 71.7396 69.0226 72.3583C68.4033 72.977 67.5654 73.3273 66.69 73.3334H13.31C12.4327 73.3334 11.5913 72.9851 10.9707 72.3651C10.35 71.745 10.0009 70.904 10 70.0267V9.97335C10.007 9.09795 10.3581 8.26044 10.9774 7.64173C11.5967 7.02302 12.4346 6.67279 13.31 6.66669H66.69C68.5167 6.66669 70 8.14669 70 9.97335ZM63.3333 13.3334H16.6667V66.6667H63.3333V13.3334ZM37.6433 43.7367L51.7867 29.5967L56.5 34.31L37.6433 53.1667L24.6767 40.2L29.3933 35.4867L37.6433 43.7367Z" fill="#29292E"/>
<path d="M37.6433 43.7365L51.7866 29.5965L56.5 34.3098L37.6433 53.1665L24.6766 40.1998L29.3933 35.4865L37.6433 43.7365Z" fill="#03B352"/>
</g>
<defs>
<clipPath id="clip0">
<rect width="80" height="80" fill="white"/>
</clipPath>
</defs>
</svg>
