<svg width="108" height="12" viewBox="0 0 108 12" fill="none" xmlns="http://www.w3.org/2000/svg">
<g clip-path="url(#clip0)">
<path fill-rule="evenodd" clip-rule="evenodd" d="M41.6592 0.237598H23.1104V2.5392H41.6592V0.237598ZM41.6592 4.9632H23.1104V7.2648H41.6592V4.9632ZM23.1104 9.68879H41.6592V11.9904H23.1104V9.68879Z" fill="#E1E1E6"/>
<path fill-rule="evenodd" clip-rule="evenodd" d="M67.2808 0.237598H85.8296V2.5392H67.2808V0.237598ZM77.5793 11.9904V4.20216L77.4778 4.25256L75.6325 5.17416V11.9904H77.5793Z" fill="#E1E1E6"/>
<path fill-rule="evenodd" clip-rule="evenodd" d="M89.6177 0.333599L96.4651 3.7464L93.9783 4.9872L89.4228 2.7168V0.237598L89.6177 0.333599ZM107.972 9.48241V11.9616L100.947 8.46241L103.432 7.22161L107.972 9.48241ZM107.972 2.7192V0.239997L107.779 0.333597L98.7063 4.8624H98.7043L96.2195 6.1056L89.4228 9.4968V11.9784L98.7063 7.344L101.191 6.1032L107.972 2.7192Z" fill="#DC1637"/>
<path d="M1.94684 12H0V9.92879C0.00107394 7.3608 0.864026 4.89824 2.39941 3.08172C3.9348 1.2652 6.01715 0.243171 8.18932 0.239992H19.5232V2.54159H8.18932C6.53473 2.54413 4.94848 3.32215 3.77831 4.7051C2.60814 6.08805 1.94953 7.96309 1.94684 9.91919V12Z" fill="#E1E1E6"/>
<path fill-rule="evenodd" clip-rule="evenodd" d="M46.0756 0.236425H44.1711V0.787456L44.1704 0.789139L44.17 1.38025C44.1697 1.79039 44.1694 2.19912 44.1704 2.4V12H46.1172V2.94511L47.7916 3.81789L62.7327 11.9865V11.9904H62.7398L62.7574 12H64.6805V10.147L64.6795 10.1466V6.05519L64.6761 6.05687V0.240001H62.7293V9.13992L61.4921 8.50542L46.0756 0.236425Z" fill="#E1E1E6"/>
</g>
<defs>
<clipPath id="clip0">
<rect width="108" height="12" fill="white"/>
</clipPath>
</defs>
</svg>
